<?xml version="1.0" standalone="no"?>
<!DOCTYPE svg PUBLIC "-//W3C//DTD SVG 1.1//EN" "http://www.w3.org/Graphics/SVG/1.1/DTD/svg11.dtd">
<svg t="1689077913747" class="icon" viewBox="0 0 1024 1024" version="1.1" xmlns="http://www.w3.org/2000/svg" p-id="7142"
  xmlns:xlink="http://www.w3.org/1999/xlink" width="16" height="16">
  <path
    d="M 905.155 178.85 l -21.9975 -20.4356 q -33.5821 -31.109 -67.5547 -61.9577 l -4.9462 -4.42555 c -29.0263 -26.0326 -53.2368 -47.6397 -71.0691 -62.7387 q -15.6196 -13.0163 -24.731 -19.7849 a 68.0754 68.0754 0 0 0 -10.5432 -6.50816 a 27.3343 27.3343 0 0 0 -13.0163 -2.99375 a 26.0326 26.0326 0 0 0 -26.0326 26.0326 v 230.389 h 230.389 l -26.0326 -26.0326 v 767.963 l 26.0326 -26.0326 H 230.389 a 76.536 76.536 0 0 1 -76.7963 -76.6661 V 26.039 l -26.0326 26.0326 h 460.778 a 26.0326 26.0326 0 1 0 0 -51.1541 H 102.438 v 895.263 a 127.82 127.82 0 0 0 127.95 127.82 h 691.167 v -818.727 H 691.167 l 26.0326 26.0326 V 26.039 a 25.1215 25.1215 0 0 1 -24.4707 24.9913 a 19.7849 19.7849 0 0 1 -9.76224 -1.95245 l 2.4731 1.82229 c 4.81604 3.38423 12.1052 9.37175 21.6071 17.4419 C 723.968 83.05 747.788 104.137 776.425 130.169 l 4.81604 4.42555 q 33.7123 30.5884 67.1642 61.5671 l 30.0677 27.9851 a 26.0326 26.0326 0 1 0 35.0139 -37.3568 l -8.33045 -7.80979 Z M 102.438 461.174 H 0 v 434.875 h 1023.99 V 461.174 H 102.438 Z M 208.261 710.957 v 108.166 h -50.6335 V 527.948 h 111.42 a 112.721 112.721 0 0 1 78.0979 26.0326 a 85.3871 85.3871 0 0 1 28.6359 67.1642 a 82.5235 82.5235 0 0 1 -28.1153 66.6436 a 118.188 118.188 0 0 1 -78.0979 23.8199 Z m 0 -40.6109 h 60.7862 a 59.8751 59.8751 0 0 0 41.2617 -13.0163 a 46.7286 46.7286 0 0 0 14.1878 -36.706 a 50.3732 50.3732 0 0 0 -14.4481 -37.7473 a 55.4495 55.4495 0 0 0 -39.049 -14.4481 H 208.261 Z m 211.125 148.777 V 527.948 h 86.0379 a 134.849 134.849 0 0 1 68.4659 17.1815 a 117.147 117.147 0 0 1 46.3381 48.8112 a 154.894 154.894 0 0 1 16.4006 72.3708 v 14.5783 a 154.243 154.243 0 0 1 -16.5307 72.7612 A 115.975 115.975 0 0 1 572.718 802.202 a 141.227 141.227 0 0 1 -69.8976 17.0514 Z m 50.6335 -250.304 v 209.953 h 33.0615 a 76.0153 76.0153 0 0 0 61.0465 -24.8612 A 108.426 108.426 0 0 0 585.734 682.452 v -16.2704 a 111.29 111.29 0 0 0 -20.5658 -72.3708 a 73.0215 73.0215 0 0 0 -59.7449 -24.9913 Z m 384.762 127.039 h -117.147 v 123.395 h -50.6335 V 527.948 H 872.094 v 40.8713 H 737.635 v 86.5585 h 117.147 Z m 0 0"
    fill="" p-id="7143"></path>
  <path
    d="M 718.11 360.948 H 305.884 a 19.915 19.915 0 1 1 0 -39.9601 h 412.227 a 19.915 19.915 0 1 1 0 39.9601 Z m 0 0"
    fill="" p-id="7144"></path>
</svg>